<svg width="199" height="69" viewBox="0 0 199 69" fill="none" xmlns="http://www.w3.org/2000/svg">
<path d="M51.9858 24.76C51.9858 27.1333 51.0391 29.0667 49.1458 30.56C47.2791 32.0533 44.9191 32.8 42.0658 32.8C40.5191 32.8 38.8391 32.56 37.0258 32.08C35.2124 31.6267 33.7191 31.0133 32.5458 30.24L32.5058 29.12C32.5058 26.9067 32.7191 24.8 33.1458 22.8H36.0258L37.9858 28.4C39.6658 29.1733 41.5858 29.56 43.7458 29.56C45.2124 28.8667 45.9458 27.7467 45.9458 26.2C45.9458 24.7867 45.0791 23.6 43.3458 22.64L37.3458 19.6C34.1724 17.7867 32.5858 15.5067 32.5858 12.76C32.5858 10.44 33.5458 8.54667 35.4658 7.08C37.3858 5.61333 39.8524 4.88 42.8658 4.88C45.5324 4.88 48.1724 5.36 50.7858 6.32C50.7858 9.14667 50.5591 11.5867 50.1058 13.64H46.9058L45.7458 9.16C44.1991 8.36 42.3458 7.98667 40.1858 8.04C38.9591 8.81333 38.3458 9.89333 38.3458 11.28C38.3458 12.08 38.6924 12.8133 39.3858 13.48C40.1058 14.12 41.5458 14.9333 43.7058 15.92C45.8924 16.9067 47.4924 17.76 48.5058 18.48C49.5458 19.1733 50.3858 20.04 51.0258 21.08C51.6658 22.0933 51.9858 23.32 51.9858 24.76ZM63.9508 22.52V29.28L68.7508 29.96L68.7108 32H54.8708L54.6308 30.72C55.4574 30.2133 56.5374 29.68 57.8708 29.12V8.08L54.9108 7.72L54.9508 5.68L67.8708 5.36C70.9641 5.36 73.4574 6.18667 75.3508 7.84C77.2708 9.46667 78.2308 11.5333 78.2308 14.04C78.2308 16.4133 77.3241 18.4 75.5108 20C73.6974 21.6 71.3641 22.4267 68.5108 22.48L63.9508 22.52ZM63.9508 9.08V18.96C65.0174 19.1733 66.0441 19.28 67.0308 19.28C68.6574 19.28 69.8841 18.7733 70.7108 17.76C71.5374 16.72 71.9508 15.4533 71.9508 13.96C71.9508 12.8133 71.7374 11.72 71.3108 10.68C70.8841 9.64 70.2841 8.90667 69.5108 8.48L63.9508 9.08ZM92.3795 4.88C96.1929 4.88 99.3262 6.21333 101.78 8.88C104.233 11.52 105.46 14.96 105.46 19.2C105.46 23.28 104.26 26.5733 101.86 29.08C99.4862 31.56 96.4329 32.8 92.6995 32.8C88.8595 32.8 85.7129 31.5333 83.2595 29C80.8062 26.4667 79.5795 23.1333 79.5795 19C79.5795 14.84 80.7795 11.4533 83.1795 8.84C85.6062 6.2 88.6729 4.88 92.3795 4.88ZM88.9395 8.96C88.0595 9.70667 87.3395 10.92 86.7795 12.6C86.2462 14.28 85.9795 16.1733 85.9795 18.28C85.9795 21.5067 86.6195 24.1467 87.8995 26.2C89.1795 28.2533 91.0062 29.28 93.3795 29.28C93.9929 29.28 94.7529 29.16 95.6595 28.92C96.6729 28.12 97.4862 26.8533 98.0995 25.12C98.7129 23.3867 99.0195 21.4533 99.0195 19.32C99.0195 16.0933 98.3662 13.4667 97.0595 11.44C95.7529 9.41333 94.0195 8.4 91.8595 8.4C90.9529 8.4 89.9795 8.58667 88.9395 8.96ZM129.572 24.24C129.572 27.44 129.398 30.0267 129.052 32H107.292L107.052 30.72C107.825 30.2133 108.958 29.6667 110.452 29.08V8.16L107.372 7.72L107.412 5.68H119.652L119.892 6.96C118.905 7.54667 117.785 8.09333 116.532 8.6V28.64L124.532 28L126.092 22.48L129.572 22.8V24.24ZM144.04 29.96L144 32H131.12L130.88 30.72C131.653 30.2133 132.787 29.6667 134.28 29.08V8.16L131.2 7.72L131.24 5.68H143.48L143.72 6.96C142.733 7.54667 141.613 8.09333 140.36 8.6V29.44L144.04 29.96ZM158.812 5.36C161.559 5.36 163.919 6 165.892 7.28C167.892 8.56 169.412 10.2133 170.452 12.24C171.492 14.2667 172.012 16.4 172.012 18.64C172.012 22.5333 170.799 25.7067 168.372 28.16C165.972 30.6133 162.772 31.8933 158.772 32H145.612L145.372 30.72C146.145 30.2133 147.279 29.6667 148.772 29.08V8.08L145.932 7.72L145.972 5.68C149.812 5.46667 154.092 5.36 158.812 5.36ZM157.892 28.68C160.185 28.68 162.039 27.76 163.452 25.92C164.892 24.08 165.612 21.7333 165.612 18.88C165.612 16.6667 165.145 14.6 164.212 12.68C163.305 10.76 162.119 9.36 160.652 8.48L154.852 9.08V28.2C155.945 28.52 156.959 28.68 157.892 28.68Z" fill="#E02020" style="mix-blend-mode:darken"/>
<path d="M33.4502 65.5375L33.4102 67.5775H20.8102L20.5702 66.2975C21.3168 65.8441 22.4768 65.2841 24.0502 64.6175L22.3702 60.2975H12.8502L11.0902 65.0175L14.7702 65.5375L14.7302 67.5775H3.85016L3.61016 66.2975C4.41016 65.7908 5.51682 65.2575 6.93016 64.6975L15.7702 42.9775L15.2902 41.7375L20.5302 40.2975L30.6102 65.1375L33.4502 65.5375ZM21.2102 57.2575L17.6102 47.8175L14.0102 57.2575H21.2102ZM55.5695 64.6975L47.3695 68.2175C44.0895 68.3241 41.3829 67.7375 39.2495 66.4575C37.1429 65.1775 35.6095 63.5108 34.6495 61.4575C33.6895 59.3775 33.2095 57.1375 33.2095 54.7375C33.2095 52.2841 33.7162 49.9641 34.7295 47.7775C35.7429 45.5908 37.2629 43.8308 39.2895 42.4975C41.3162 41.1375 43.7695 40.4575 46.6495 40.4575C49.7429 40.4575 52.4895 41.2975 54.8895 42.9775C54.9429 43.8308 54.8895 44.9775 54.7295 46.4175C54.5695 47.8575 54.3295 49.1108 54.0095 50.1775H50.3295L49.3695 45.1775C47.5295 44.3775 45.5162 43.9775 43.3295 43.9775C42.0229 44.9641 41.0362 46.3508 40.3695 48.1375C39.7295 49.9241 39.4095 51.8041 39.4095 53.7775C39.4095 56.9508 40.1829 59.4708 41.7295 61.3375C43.2762 63.2041 45.3695 64.0975 48.0095 64.0175L54.6095 61.8575L55.5695 64.6975ZM84.3095 65.5375L84.2695 67.5775H71.6695L71.4295 66.2975C72.1762 65.8441 73.3362 65.2841 74.9095 64.6175L73.2295 60.2975H63.7095L61.9495 65.0175L65.6295 65.5375L65.5895 67.5775H54.7095L54.4695 66.2975C55.2695 65.7908 56.3762 65.2575 57.7895 64.6975L66.6295 42.9775L66.1495 41.7375L71.3895 40.2975L81.4695 65.1375L84.3095 65.5375ZM72.0695 57.2575L68.4695 47.8175L64.8695 57.2575H72.0695ZM97.2886 40.9375C100.035 40.9375 102.395 41.5775 104.369 42.8575C106.369 44.1375 107.889 45.7908 108.929 47.8175C109.969 49.8441 110.489 51.9775 110.489 54.2175C110.489 58.1108 109.275 61.2841 106.849 63.7375C104.449 66.1908 101.249 67.4708 97.2486 67.5775H84.0886L83.8486 66.2975C84.6219 65.7908 85.7553 65.2441 87.2486 64.6575V43.6575L84.4086 43.2975L84.4486 41.2575C88.2886 41.0441 92.5686 40.9375 97.2886 40.9375ZM96.3686 64.2575C98.6619 64.2575 100.515 63.3375 101.929 61.4975C103.369 59.6575 104.089 57.3108 104.089 54.4575C104.089 52.2441 103.622 50.1775 102.689 48.2575C101.782 46.3375 100.595 44.9375 99.1286 44.0575L93.3286 44.6575V63.7775C94.4219 64.0975 95.4353 64.2575 96.3686 64.2575ZM133.731 59.6175C133.784 62.2308 133.624 64.8841 133.251 67.5775H112.331L112.091 66.2975C112.864 65.7908 113.997 65.2441 115.491 64.6575V43.6575L112.531 43.2975L112.571 41.2575H133.451C133.584 43.4441 133.371 45.9775 132.811 48.8575H129.451L128.771 44.8975L121.571 44.3775V52.9775L130.171 52.2975V56.3375L121.571 55.9775V64.2575L129.051 63.7375L130.371 59.3775L133.731 59.6175ZM172.858 65.6975L172.818 67.5775H160.098L159.858 66.2975C160.632 65.7908 161.765 65.2441 163.258 64.6575L163.138 53.8975L163.698 47.0575L156.298 66.9375L151.698 67.8575L144.258 47.2575L144.898 53.8975L144.698 65.0175L148.058 65.6975L148.018 67.5775H136.978L136.738 66.2975C137.618 65.7641 138.805 65.1908 140.298 64.5775L140.858 44.1375L137.578 43.4575L137.618 41.5775H148.178L148.138 41.6175L155.218 61.3375L162.458 41.5775H171.778L172.018 42.8575C171.165 43.3908 170.072 43.9241 168.738 44.4575L169.098 64.9375L172.858 65.6975ZM188.571 65.0575L191.891 65.5375L191.851 67.5775H179.651L179.411 66.2975C180.238 65.7908 181.318 65.2575 182.651 64.6975V57.6975L175.131 43.6575L172.611 43.2975L172.651 41.2575H183.331L183.571 42.5375L181.331 43.6975L185.091 50.7775L186.171 54.1775H186.411L191.651 43.7375L188.691 43.2975L188.731 41.2575H198.491L198.731 42.5375C198.038 42.9641 196.985 43.4841 195.571 44.0975L188.571 57.0575V65.0575Z" fill="#E02020"/>
<path d="M33.4502 65.5375L33.4102 67.5775H20.8102L20.5702 66.2975C21.3168 65.8441 22.4768 65.2841 24.0502 64.6175L22.3702 60.2975H12.8502L11.0902 65.0175L14.7702 65.5375L14.7302 67.5775H3.85016L3.61016 66.2975C4.41016 65.7908 5.51682 65.2575 6.93016 64.6975L15.7702 42.9775L15.2902 41.7375L20.5302 40.2975L30.6102 65.1375L33.4502 65.5375ZM21.2102 57.2575L17.6102 47.8175L14.0102 57.2575H21.2102ZM55.5695 64.6975L47.3695 68.2175C44.0895 68.3241 41.3829 67.7375 39.2495 66.4575C37.1429 65.1775 35.6095 63.5108 34.6495 61.4575C33.6895 59.3775 33.2095 57.1375 33.2095 54.7375C33.2095 52.2841 33.7162 49.9641 34.7295 47.7775C35.7429 45.5908 37.2629 43.8308 39.2895 42.4975C41.3162 41.1375 43.7695 40.4575 46.6495 40.4575C49.7429 40.4575 52.4895 41.2975 54.8895 42.9775C54.9429 43.8308 54.8895 44.9775 54.7295 46.4175C54.5695 47.8575 54.3295 49.1108 54.0095 50.1775H50.3295L49.3695 45.1775C47.5295 44.3775 45.5162 43.9775 43.3295 43.9775C42.0229 44.9641 41.0362 46.3508 40.3695 48.1375C39.7295 49.9241 39.4095 51.8041 39.4095 53.7775C39.4095 56.9508 40.1829 59.4708 41.7295 61.3375C43.2762 63.2041 45.3695 64.0975 48.0095 64.0175L54.6095 61.8575L55.5695 64.6975ZM84.3095 65.5375L84.2695 67.5775H71.6695L71.4295 66.2975C72.1762 65.8441 73.3362 65.2841 74.9095 64.6175L73.2295 60.2975H63.7095L61.9495 65.0175L65.6295 65.5375L65.5895 67.5775H54.7095L54.4695 66.2975C55.2695 65.7908 56.3762 65.2575 57.7895 64.6975L66.6295 42.9775L66.1495 41.7375L71.3895 40.2975L81.4695 65.1375L84.3095 65.5375ZM72.0695 57.2575L68.4695 47.8175L64.8695 57.2575H72.0695ZM97.2886 40.9375C100.035 40.9375 102.395 41.5775 104.369 42.8575C106.369 44.1375 107.889 45.7908 108.929 47.8175C109.969 49.8441 110.489 51.9775 110.489 54.2175C110.489 58.1108 109.275 61.2841 106.849 63.7375C104.449 66.1908 101.249 67.4708 97.2486 67.5775H84.0886L83.8486 66.2975C84.6219 65.7908 85.7553 65.2441 87.2486 64.6575V43.6575L84.4086 43.2975L84.4486 41.2575C88.2886 41.0441 92.5686 40.9375 97.2886 40.9375ZM96.3686 64.2575C98.6619 64.2575 100.515 63.3375 101.929 61.4975C103.369 59.6575 104.089 57.3108 104.089 54.4575C104.089 52.2441 103.622 50.1775 102.689 48.2575C101.782 46.3375 100.595 44.9375 99.1286 44.0575L93.3286 44.6575V63.7775C94.4219 64.0975 95.4353 64.2575 96.3686 64.2575ZM133.731 59.6175C133.784 62.2308 133.624 64.8841 133.251 67.5775H112.331L112.091 66.2975C112.864 65.7908 113.997 65.2441 115.491 64.6575V43.6575L112.531 43.2975L112.571 41.2575H133.451C133.584 43.4441 133.371 45.9775 132.811 48.8575H129.451L128.771 44.8975L121.571 44.3775V52.9775L130.171 52.2975V56.3375L121.571 55.9775V64.2575L129.051 63.7375L130.371 59.3775L133.731 59.6175ZM172.858 65.6975L172.818 67.5775H160.098L159.858 66.2975C160.632 65.7908 161.765 65.2441 163.258 64.6575L163.138 53.8975L163.698 47.0575L156.298 66.9375L151.698 67.8575L144.258 47.2575L144.898 53.8975L144.698 65.0175L148.058 65.6975L148.018 67.5775H136.978L136.738 66.2975C137.618 65.7641 138.805 65.1908 140.298 64.5775L140.858 44.1375L137.578 43.4575L137.618 41.5775H148.178L148.138 41.6175L155.218 61.3375L162.458 41.5775H171.778L172.018 42.8575C171.165 43.3908 170.072 43.9241 168.738 44.4575L169.098 64.9375L172.858 65.6975ZM188.571 65.0575L191.891 65.5375L191.851 67.5775H179.651L179.411 66.2975C180.238 65.7908 181.318 65.2575 182.651 64.6975V57.6975L175.131 43.6575L172.611 43.2975L172.651 41.2575H183.331L183.571 42.5375L181.331 43.6975L185.091 50.7775L186.171 54.1775H186.411L191.651 43.7375L188.691 43.2975L188.731 41.2575H198.491L198.731 42.5375C198.038 42.9641 196.985 43.4841 195.571 44.0975L188.571 57.0575V65.0575Z" fill="url(#paint0_linear)" style="mix-blend-mode:color"/>
<defs>
<linearGradient id="paint0_linear" x1="103.071" y1="20.8028" x2="102.334" y2="72.0487" gradientUnits="userSpaceOnUse">
<stop offset="0.432292" stop-color="white" stop-opacity="0"/>
<stop offset="0.911458" stop-color="#2E35DE" stop-opacity="0.64"/>
</linearGradient>
</defs>
</svg>
